# Blender v2.72 (sub 0) OBJ File: ''
# www.blender.org
mtllib sky.mtl
o Cube
v 1.000000 -1.000000 1.000000
v 1.000000 1.000000 1.000000
v -1.000000 1.000000 1.000000
v -1.000000 -1.000000 1.000000
v 1.000000 -1.000000 -1.000000
v 0.999999 1.000001 -1.000000
v -1.000000 1.000000 -1.000000
v -1.000000 -1.000000 -1.000000
vt 0.499389 0.665611
vt 0.250235 0.664694
vt 0.250849 0.336337
vt 0.998908 0.335963
vt 0.998295 0.666402
vt 0.751806 0.666527
vt 0.498602 0.336212
vt 0.751639 0.336087
vt 0.500177 0.999605
vt 0.251183 0.998903
vt -0.000160 0.663777
vt 0.000454 0.336462
vt 0.250682 0.003814
vt 0.499216 0.003689
vn -0.000000 0.000000 1.000000
vn 0.000000 -0.000000 -1.000000
vn 1.000000 0.000000 0.000000
vn -0.000000 1.000000 0.000000
vn -1.000000 -0.000000 0.000000
vn 0.000000 -1.000000 -0.000000
usemtl Material
s off
f 2/1/1 3/2/1 4/3/1
f 8/4/2 7/5/2 6/6/2
f 1/7/3 5/8/3 6/6/3
f 2/1/4 6/9/4 7/10/4
f 7/11/5 8/12/5 4/3/5
f 1/7/6 4/3/6 8/13/6
f 1/7/1 2/1/1 4/3/1
f 5/8/2 8/4/2 6/6/2
f 2/1/3 1/7/3 6/6/3
f 3/2/4 2/1/4 7/10/4
f 3/2/5 7/11/5 4/3/5
f 5/14/6 1/7/6 8/13/6
