# Blender v2.71 (sub 0) OBJ File: 'sky.blend'
# www.blender.org
mtllib sky.mtl
o Cube
v 1.000000 -1.000000 1.000000
v 1.000000 1.000000 1.000000
v -1.000000 1.000000 1.000000
v -1.000000 -1.000000 1.000000
v 1.000000 -1.000000 -1.000000
v 0.999999 1.000001 -1.000000
v -1.000000 1.000000 -1.000000
v -1.000000 -1.000000 -1.000000
vt 0.498769 0.664784
vt 0.251190 0.665229
vt 0.251239 0.335556
vt 0.998908 0.335963
vt 0.999279 0.665418
vt 0.752052 0.665215
vt 0.498602 0.336212
vt 0.751639 0.336087
vt 0.499068 0.999866
vt 0.250808 0.999630
vt 0.000133 0.665730
vt 0.000649 0.335421
vt 0.251420 0.001846
vt 0.499216 0.002863
vn -0.000000 0.000000 1.000000
vn 0.000000 -0.000000 -1.000000
vn 1.000000 0.000000 0.000000
vn -0.000000 1.000000 0.000000
vn -1.000000 -0.000000 0.000000
vn 0.000000 -1.000000 -0.000000
usemtl Material
s off
f 2/1/1 3/2/1 4/3/1
f 8/4/2 7/5/2 6/6/2
f 1/7/3 5/8/3 6/6/3
f 2/1/4 6/9/4 7/10/4
f 7/11/5 8/12/5 4/3/5
f 1/7/6 4/3/6 8/13/6
f 1/7/1 2/1/1 4/3/1
f 5/8/2 8/4/2 6/6/2
f 2/1/3 1/7/3 6/6/3
f 3/2/4 2/1/4 7/10/4
f 3/2/5 7/11/5 4/3/5
f 5/14/6 1/7/6 8/13/6
